<svg id="svg" xmlns="http://www.w3.org/2000/svg" xmlns:xlink="http://www.w3.org/1999/xlink" width="400" height="400" viewBox="0, 0, 400,400"><g id="svgg"><path id="path0" d="M8.114 31.886 C 0.220 39.780,0.000 44.547,0.000 208.000 L 0.000 376.000 200.123 376.000 L 400.247 376.000 399.123 204.330 C 398.506 109.912,396.501 31.162,394.670 29.330 C 386.182 20.844,16.713 23.287,8.114 31.886 M379.000 41.941 C 381.750 42.935,384.000 50.105,384.000 57.874 L 384.000 72.000 200.000 72.000 L 16.000 72.000 16.000 58.800 C 16.000 51.540,17.708 43.890,19.796 41.800 C 23.539 38.053,368.622 38.189,379.000 41.941 M384.000 223.914 L 384.000 359.829 200.000 359.794 L 16.000 359.759 16.000 223.880 L 16.000 88.000 200.000 88.000 L 384.000 88.000 384.000 223.914 M178.034 132.752 C 174.452 142.619,152.000 243.271,152.000 249.461 C 152.000 253.357,157.186 256.610,166.044 258.272 C 173.768 259.721,181.075 262.503,182.280 264.453 C 185.308 269.352,182.070 269.054,149.490 261.435 C 117.017 253.842,106.837 255.726,108.719 268.982 C 109.955 277.683,111.471 278.000,151.841 278.000 L 193.681 278.000 202.841 264.408 C 212.228 250.479,216.195 256.688,207.859 272.263 C 201.906 283.386,239.351 283.767,249.380 272.685 C 258.244 262.891,257.925 259.257,242.177 190.609 C 226.941 124.195,226.910 124.126,216.710 133.358 C 207.550 141.648,200.279 141.750,188.860 133.752 C 181.757 128.777,179.551 128.573,178.034 132.752 M96.000 185.164 C 79.500 194.560,66.000 204.852,66.000 208.034 C 66.000 216.388,127.325 250.275,132.706 244.894 C 138.790 238.810,134.255 233.727,111.877 221.547 C 87.475 208.266,87.455 208.725,113.046 193.841 C 132.750 182.381,142.955 167.952,131.293 168.040 C 128.382 168.062,112.500 175.767,96.000 185.164 M266.000 172.000 C 262.160 178.213,266.643 182.762,288.123 194.453 C 312.661 207.808,312.665 207.705,287.000 222.353 C 267.484 233.492,260.499 243.500,270.023 246.674 C 276.748 248.916,334.000 214.418,334.000 208.124 C 334.000 197.770,270.817 164.205,266.000 172.000 " stroke="none" fill="#000000" fill-rule="evenodd"></path></g></svg>